<svg id="donations" enable-background="new 0 0 300 300" height="512" viewBox="0 0 300 300" width="512" xmlns="http://www.w3.org/2000/svg"><g><circle cx="158.087" cy="154.06" fill="#e5efef" r="86"/><circle cx="252.087" cy="188.06" fill="#4c241d" r="4"/><circle cx="196.087" cy="172.06" fill="#4c241d" r="4"/><circle cx="64.087" cy="180.06" fill="#4c241d" r="4"/><g><path d="m55.911 145.412.636.071c22.991 2.555 35.226-12.688 55.364-24.071l65.817-21.939c3.692-1.231 6.183-4.686 6.183-8.578 0-5.163-4.315-9.277-9.472-9.032l-74.528 3.549z" fill="#b5a19c"/><path d="m61.564 149.765c-1.758 0-3.574-.098-5.457-.309l-.633-.068c-1.422-.158-2.648-1.061-3.223-2.367-.578-1.309-.41-2.822.434-3.975l44-60c.715-.975 1.832-1.572 3.035-1.631l74.527-3.549c3.621-.137 7.016 1.104 9.621 3.588 2.605 2.486 4.043 5.838 4.043 9.439 0 5.623-3.586 10.594-8.918 12.373l-65.445 21.816c-5.145 2.93-9.797 6.139-14.297 9.246-11.473 7.916-22.375 15.437-37.687 15.437zm40.445-60.449-38.426 52.4c11.762-.611 20.492-6.637 31.125-13.973 4.742-3.271 9.648-6.656 15.234-9.814.223-.127.461-.23.703-.312l65.816-21.939c2.062-.688 3.449-2.609 3.449-4.783 0-1.393-.555-2.688-1.562-3.648-1.012-.963-2.371-1.469-3.719-1.387z" fill="#4c241d"/></g><g><circle cx="120.087" cy="140.06" fill="#ffce56" r="44"/><path d="m120.087 188.06c-26.469 0-48-21.533-48-48s21.531-48 48-48 48 21.533 48 48-21.531 48-48 48zm0-88c-22.055 0-40 17.943-40 40s17.945 40 40 40 40-17.943 40-40-17.945-40-40-40z" fill="#4c241d"/></g><path d="m120.087 172.06c-17.645 0-32-14.355-32-32s14.355-32 32-32 32 14.355 32 32-14.355 32-32 32zm0-56c-13.234 0-24 10.766-24 24s10.766 24 24 24 24-10.766 24-24-10.766-24-24-24z" fill="#fc8c29"/><g><path d="m223.911 35.94s-18.181 17.654-22.645 19.75c-5.938 2.788-12.441 4.25-19.055 4.25h-66.612c-11.37 0-22.182 4.923-29.647 13.499l-47.007 54.002c-4.256 4.889-3.734 12.399 1.4 16.634 4.819 3.975 12.039 3.06 16.295-1.511l43.775-47.019c7.103-7.63 17.058-11.963 27.482-11.963h21.744c5.737 0 10.388 4.651 10.388 10.388 0 5.737-4.651 10.388-10.388 10.388h-23.301c-3.61 0-7.237.618-10.55 2.053-17.333 7.51-10.86 25.648 1.639 25.648h77.235c13.299 0 26.052-5.282 35.456-14.686l14.965-22.965 18.826-10.826" fill="#e7d1c4"/><path d="m47.501 150.607c-3.465 0-6.895-1.131-9.699-3.445-3.305-2.725-5.312-6.559-5.66-10.799-.352-4.24.996-8.342 3.789-11.549l47.004-54.002c8.227-9.451 20.133-14.871 32.664-14.871h66.613c5.957 0 11.961-1.338 17.355-3.871 2.383-1.119 13.047-10.732 21.559-18.998 1.586-1.543 4.117-1.502 5.656.082 1.539 1.586 1.5 4.117-.086 5.656-4.375 4.252-19.023 18.293-23.73 20.502-6.449 3.027-13.629 4.629-20.754 4.629h-66.613c-10.219 0-19.926 4.42-26.633 12.125l-47.004 54.002c-1.363 1.564-2.02 3.568-1.848 5.639.168 2.07 1.156 3.947 2.777 5.285 3.043 2.508 7.898 1.992 10.824-1.154l43.774-47.018c7.828-8.414 18.914-13.238 30.41-13.238h21.742c7.934 0 14.387 6.455 14.387 14.389s-6.453 14.389-14.387 14.389h-23.301c-3.309 0-6.32.58-8.961 1.723-5.949 2.578-8.938 6.846-7.992 11.412.656 3.162 3.453 6.566 8.039 6.566h77.238c12.188 0 23.652-4.693 32.336-13.229l14.73-22.607c.344-.529.809-.969 1.359-1.283l18.828-10.826c1.91-1.102 4.355-.441 5.461 1.473 1.102 1.916.441 4.361-1.477 5.461l-17.992 10.348-14.441 22.16c-.152.232-.328.449-.523.645-10.223 10.227-23.82 15.859-38.281 15.859h-77.238c-7.766 0-14.289-5.322-15.871-12.943-1.371-6.607 1.23-15.432 12.645-20.375 3.648-1.582 7.73-2.383 12.141-2.383h23.301c3.523 0 6.387-2.865 6.387-6.389s-2.863-6.389-6.387-6.389h-21.742c-9.281 0-18.234 3.896-24.555 10.688l-43.777 47.02c-3.266 3.509-7.692 5.316-12.067 5.316z" fill="#4c241d"/></g><g><path d="m40.087 264.06 40-64h132l40 64" fill="#bf7e68"/><path d="m252.091 268.06c-1.332 0-2.637-.666-3.395-1.881l-38.828-62.119h-127.562l-38.828 62.119c-1.168 1.873-3.633 2.443-5.512 1.273-1.871-1.172-2.441-3.639-1.27-5.512l40-64c.73-1.17 2.012-1.881 3.391-1.881h132c1.379 0 2.66.711 3.391 1.881l40 64c1.172 1.873.602 4.34-1.27 5.512-.66.413-1.394.608-2.117.608z" fill="#4c241d"/></g><g><path d="m182.087 236.06h-72c-3.314 0-6-2.686-6-6 0-3.314 2.686-6 6-6h72c3.314 0 6 2.686 6 6 0 3.314-2.686 6-6 6z" fill="#6b4f5b"/><path d="m182.087 240.06h-72c-5.516 0-10-4.486-10-10s4.484-10 10-10h72c5.516 0 10 4.486 10 10s-4.484 10-10 10zm-72-12c-1.102 0-2 .896-2 2s.898 2 2 2h72c1.102 0 2-.896 2-2s-.898-2-2-2z" fill="#4c241d"/></g><g fill="#4c241d"><path d="m236.087 160.06c-2.211 0-4-1.791-4-4v-16c0-2.209 1.789-4 4-4s4 1.791 4 4v16c0 2.209-1.789 4-4 4z"/><path d="m244.087 152.06h-16c-2.211 0-4-1.791-4-4s1.789-4 4-4h16c2.211 0 4 1.791 4 4s-1.789 4-4 4z"/><path d="m56.087 76.06c-2.211 0-4-1.791-4-4v-16c0-2.209 1.789-4 4-4s4 1.791 4 4v16c0 2.209-1.789 4-4 4z"/><path d="m64.087 68.06h-16c-2.211 0-4-1.791-4-4s1.789-4 4-4h16c2.211 0 4 1.791 4 4s-1.789 4-4 4z"/></g></g></svg>